<svg width="189" height="56" viewBox="0 0 189 56" fill="none" xmlns="http://www.w3.org/2000/svg">
<path d="M89.0214 14.8615V12.2872H78.7463V27.6888H81.3206V21.2642H87.7233V18.7119H81.3206V14.8615H89.0214Z" fill="white"/>
<path d="M99.2982 27.6888H102.071L95.9099 11.8472L89.7712 27.6888H92.5435L93.2036 25.9067H98.6162L99.2982 27.6888ZM95.9099 18.3379L97.7801 23.6844H94.0397L95.9099 18.3379Z" fill="white"/>
<path d="M111.391 27.6888H114.229L111.083 20.8681C112.469 20.3621 114.053 19.262 114.053 16.7757C114.053 12.2872 108.904 12.2872 108.904 12.2872H103.778V27.6888H106.352V21.2642H108.442L111.391 27.6888ZM106.352 14.8615H108.904C108.904 14.8615 111.479 14.8615 111.479 16.7757C111.479 18.7119 108.904 18.7119 108.904 18.7119H106.352V14.8615Z" fill="white"/>
<path d="M132.345 27.6888H135.117L128.956 11.8472L122.818 27.6888H125.59L126.25 25.9067H131.663L132.345 27.6888ZM128.956 18.3379L130.827 23.6844H127.086L128.956 18.3379Z" fill="white"/>
<path d="M145.867 12.2872V18.6679H139.465V12.2872H136.89V27.6888H139.465V21.2642H145.867V27.6888H148.441V12.2872H145.867Z" fill="white"/>
<path d="M162.205 14.8615V12.2872H151.93V27.6888H162.205V25.1146H154.504V21.2642H160.907V18.7119H154.504V14.8615H162.205Z" fill="white"/>
<path d="M172.654 27.6888H175.426L169.265 11.8472L163.127 27.6888H165.899L166.559 25.9067H171.972L172.654 27.6888ZM169.265 18.3379L171.135 23.6844H167.395L169.265 18.3379Z" fill="white"/>
<path d="M177.155 12.2872V27.6888H179.729C183.558 27.6888 188.728 26.5667 188.728 19.988C188.728 13.1453 183.47 12.2872 179.729 12.2872H177.155ZM179.729 25.1806V14.7955C179.729 14.7955 186.132 13.8274 186.132 19.988C186.132 26.0607 179.729 25.1806 179.729 25.1806Z" fill="white"/>
<path d="M98.0591 42.921H97.1452V36.4726H94.8806V35.6704H100.313V36.4726H98.0591V42.921Z" fill="white"/>
<path d="M103.407 35.6704C104.308 35.6704 104.971 35.843 105.398 36.1883C105.831 36.5268 106.048 37.0413 106.048 37.7318C106.048 38.1177 105.977 38.4393 105.834 38.6966C105.692 38.9538 105.509 39.1603 105.286 39.316C105.069 39.465 104.839 39.5834 104.595 39.6714L106.586 42.921H105.52L103.763 39.9253H102.321V42.921H101.407V35.6704H103.407ZM103.357 36.4625H102.321V39.1535H103.407C103.996 39.1535 104.426 39.0384 104.697 38.8083C104.968 38.5713 105.103 38.2261 105.103 37.7725C105.103 37.2986 104.961 36.9635 104.677 36.7671C104.392 36.564 103.952 36.4625 103.357 36.4625Z" fill="white"/>
<path d="M112.273 42.921L111.4 40.6768H108.526L107.663 42.921H106.739L109.572 35.6399H110.395L113.218 42.921H112.273ZM110.313 37.6709C110.293 37.6168 110.259 37.5186 110.212 37.3764C110.164 37.2343 110.117 37.0887 110.07 36.9398C110.029 36.7841 109.995 36.6656 109.968 36.5843C109.921 36.7942 109.867 37.0007 109.806 37.2038C109.745 37.4001 109.694 37.5558 109.653 37.6709L108.831 39.8644H111.126L110.313 37.6709Z" fill="white"/>
<path d="M118.911 35.6704L116.321 42.921H115.407L112.818 35.6704H113.772L115.407 40.3214C115.516 40.6192 115.607 40.9002 115.682 41.1642C115.756 41.4215 115.817 41.6686 115.864 41.9055C115.912 41.6686 115.973 41.4181 116.047 41.1541C116.122 40.89 116.213 40.6057 116.321 40.301L117.946 35.6704H118.911Z" fill="white"/>
<path d="M123.944 42.921H119.892V35.6704H123.944V36.4726H120.806V38.7372H123.761V39.5293H120.806V42.1188H123.944V42.921Z" fill="white"/>
<path d="M125.535 42.921V35.6704H126.449V42.1086H129.617V42.921H125.535Z" fill="white"/>
<path d="M138.236 42.921L137.362 40.6768H134.489L133.625 42.921H132.701L135.535 35.6399H136.357L139.18 42.921H138.236ZM136.276 37.6709C136.256 37.6168 136.222 37.5186 136.174 37.3764C136.127 37.2343 136.08 37.0887 136.032 36.9398C135.992 36.7841 135.958 36.6656 135.931 36.5843C135.883 36.7942 135.829 37.0007 135.768 37.2038C135.707 37.4001 135.656 37.5558 135.616 37.6709L134.793 39.8644H137.088L136.276 37.6709Z" fill="white"/>
<path d="M143.122 39.0926H145.63V42.6468C145.237 42.7755 144.841 42.8702 144.442 42.9312C144.042 42.9921 143.589 43.0226 143.081 43.0226C142.33 43.0226 141.697 42.8736 141.182 42.5757C140.668 42.2711 140.275 41.8412 140.004 41.2861C139.74 40.7242 139.608 40.0607 139.608 39.2957C139.608 38.5375 139.757 37.8808 140.055 37.3257C140.353 36.7705 140.779 36.3406 141.334 36.036C141.896 35.7246 142.573 35.5688 143.365 35.5688C143.772 35.5688 144.154 35.6061 144.513 35.6806C144.879 35.755 145.217 35.86 145.528 35.9954L145.183 36.7874C144.926 36.6723 144.635 36.5742 144.31 36.4929C143.992 36.4117 143.66 36.3711 143.315 36.3711C142.448 36.3711 141.771 36.6317 141.284 37.153C140.803 37.6743 140.563 38.3885 140.563 39.2957C140.563 39.8712 140.654 40.3823 140.837 40.8291C141.026 41.2691 141.321 41.6144 141.72 41.8649C142.12 42.1086 142.644 42.2305 143.294 42.2305C143.613 42.2305 143.883 42.2136 144.107 42.1797C144.33 42.1459 144.533 42.1052 144.716 42.0578V39.905H143.122V39.0926Z" fill="white"/>
<path d="M151.414 42.921H147.362V35.6704H151.414V36.4726H148.276V38.7372H151.231V39.5293H148.276V42.1188H151.414V42.921Z" fill="white"/>
<path d="M158.752 42.921H157.686L153.807 36.8991H153.766C153.78 37.1361 153.797 37.4306 153.817 37.7826C153.837 38.1347 153.847 38.4969 153.847 38.8692V42.921H153.005V35.6704H154.061L157.93 41.672H157.97C157.964 41.5636 157.953 41.4012 157.94 41.1845C157.933 40.9679 157.923 40.7309 157.909 40.4737C157.903 40.2164 157.899 39.9795 157.899 39.7628V35.6704H158.752V42.921Z" fill="white"/>
<path d="M163.827 36.3711C163.049 36.3711 162.436 36.6317 161.989 37.153C161.542 37.6743 161.319 38.3885 161.319 39.2957C161.319 40.1961 161.526 40.9103 161.938 41.4384C162.358 41.9597 162.984 42.2203 163.817 42.2203C164.135 42.2203 164.437 42.1932 164.721 42.1391C165.005 42.0849 165.283 42.0172 165.554 41.936V42.7281C165.283 42.8296 165.002 42.9041 164.711 42.9515C164.426 42.9989 164.085 43.0226 163.685 43.0226C162.947 43.0226 162.331 42.8702 161.837 42.5656C161.343 42.2609 160.97 41.8277 160.72 41.2658C160.476 40.7039 160.354 40.0438 160.354 39.2855C160.354 38.5544 160.486 37.9113 160.75 37.3561C161.021 36.7942 161.417 36.3575 161.938 36.0461C162.46 35.7279 163.093 35.5688 163.837 35.5688C164.602 35.5688 165.269 35.711 165.838 35.9954L165.472 36.7671C165.249 36.6656 164.998 36.5742 164.721 36.4929C164.45 36.4117 164.152 36.3711 163.827 36.3711Z" fill="white"/>
<path d="M169.025 39.2348L170.914 35.6704H171.899L169.482 40.1081V42.921H168.568V40.1487L166.151 35.6704H167.146L169.025 39.2348Z" fill="white"/>
<path d="M2.6891 21.1811C0.971493 32.7526 36.7768 17.4171 52.6879 13.4368C44.0472 -0.738257 30.9064 0.180598 24.9857 0.901087C19.065 1.62158 4.75133 7.28774 2.6891 21.1811Z" fill="white"/>
<path d="M25.0871 55.038C33.9185 51.187 45.0496 45.557 42.3225 38.1855C40.4666 33.1689 16.2384 37.3996 0 40.8666C17.7148 35.2934 48.8337 23.4397 55.3448 18.8436C58.6811 16.5831 60.1653 15.1051 62.622 12.5239L56.3758 23.4397C57.717 35.9085 52.6634 54.6324 25.0871 55.038Z" fill="white"/>
<path d="M37.9179 40.4836C40.3917 45.8457 28.652 49.9986 20.491 54.6549C44.8504 39.6409 20.4272 40.9943 5.17065 43.5477C22.4061 40.1006 35.4442 35.1215 37.9179 40.4836Z" fill="white"/>
</svg>
