<svg width="49" height="40" viewBox="0 0 49 40" fill="none" xmlns="http://www.w3.org/2000/svg">
<path d="M48.5 20C48.5 30.6795 37.8545 39.5 24.5 39.5C11.1455 39.5 0.5 30.6795 0.5 20C0.5 9.32052 11.1455 0.5 24.5 0.5C37.8545 0.5 48.5 9.32052 48.5 20Z" stroke="#3A97FC"/>
<path fill-rule="evenodd" clip-rule="evenodd" d="M24.4999 35.493C34.9816 35.493 43.4787 28.5566 43.4787 20C43.4787 11.4435 34.9816 4.50708 24.4999 4.50708C14.0181 4.50708 5.521 11.4435 5.521 20C5.521 28.5566 14.0181 35.493 24.4999 35.493ZM25.2651 31.1983L39.5873 13.7335L34.9478 9.92883L22.9731 24.531L16.8347 16.8651L12.1512 20.6155L20.6036 31.1711L22.9176 34.0609L25.2651 31.1983Z" fill="#3A97FC"/>
</svg>
