<svg width="189" height="56" viewBox="0 0 189 56" fill="none" xmlns="http://www.w3.org/2000/svg">
<path d="M2.6891 21.1813C0.971493 32.7529 36.7768 17.4174 52.6879 13.437C44.0472 -0.738043 30.9064 0.180812 24.9857 0.901302C19.065 1.62179 4.75133 7.28796 2.6891 21.1813Z" fill="url(#paint0_linear)"/>
<path d="M25.0871 55.0379C33.9185 51.1869 45.0496 45.5569 42.3225 38.1855C40.4666 33.1688 16.2384 37.3995 0 40.8666C17.7148 35.2933 48.8337 23.4396 55.3448 18.8435C58.6811 16.5831 60.1653 15.105 62.622 12.5239L56.3758 23.4396C57.717 35.9085 52.6634 54.6324 25.0871 55.0379Z" fill="url(#paint1_linear)"/>
<path d="M37.9179 40.4836C40.3917 45.8457 28.652 49.9986 20.491 54.6549C44.8504 39.6409 20.4272 40.9942 5.17065 43.5476C22.4061 40.1006 35.4442 35.1214 37.9179 40.4836Z" fill="#35F877"/>
<path d="M89.0214 14.8617V12.2875H78.7463V27.6891H81.3206V21.2644H87.7233V18.7121H81.3206V14.8617H89.0214Z" fill="white"/>
<path d="M99.2982 27.6891H102.071L95.9099 11.8474L89.7712 27.6891H92.5435L93.2036 25.9069H98.6162L99.2982 27.6891ZM95.9099 18.3381L97.7801 23.6847H94.0397L95.9099 18.3381Z" fill="white"/>
<path d="M111.391 27.6891H114.229L111.083 20.8684C112.469 20.3623 114.053 19.2622 114.053 16.7759C114.053 12.2875 108.904 12.2875 108.904 12.2875H103.778V27.6891H106.352V21.2644H108.442L111.391 27.6891ZM106.352 14.8617H108.904C108.904 14.8617 111.479 14.8617 111.479 16.7759C111.479 18.7121 108.904 18.7121 108.904 18.7121H106.352V14.8617Z" fill="white"/>
<path d="M132.345 27.6891H135.117L128.956 11.8474L122.818 27.6891H125.59L126.25 25.9069H131.663L132.345 27.6891ZM128.956 18.3381L130.827 23.6847H127.086L128.956 18.3381Z" fill="white"/>
<path d="M145.867 12.2875V18.6681H139.465V12.2875H136.89V27.6891H139.465V21.2644H145.867V27.6891H148.441V12.2875H145.867Z" fill="white"/>
<path d="M162.205 14.8617V12.2875H151.93V27.6891H162.205V25.1148H154.504V21.2644H160.907V18.7121H154.504V14.8617H162.205Z" fill="white"/>
<path d="M172.654 27.6891H175.426L169.265 11.8474L163.127 27.6891H165.899L166.559 25.9069H171.972L172.654 27.6891ZM169.265 18.3381L171.135 23.6847H167.395L169.265 18.3381Z" fill="white"/>
<path d="M177.155 12.2875V27.6891H179.729C183.558 27.6891 188.728 26.567 188.728 19.9883C188.728 13.1455 183.47 12.2875 179.729 12.2875H177.155ZM179.729 25.1808V14.7957C179.729 14.7957 186.132 13.8276 186.132 19.9883C186.132 26.0609 179.729 25.1808 179.729 25.1808Z" fill="white"/>
<path d="M98.0591 42.9215H97.1452V36.4731H94.8806V35.6709H100.313V36.4731H98.0591V42.9215Z" fill="white"/>
<path d="M103.407 35.6709C104.308 35.6709 104.971 35.8435 105.398 36.1888C105.831 36.5273 106.048 37.0418 106.048 37.7323C106.048 38.1182 105.977 38.4398 105.834 38.697C105.692 38.9543 105.509 39.1608 105.286 39.3165C105.069 39.4654 104.839 39.5839 104.595 39.6719L106.586 42.9215H105.52L103.763 39.9258H102.321V42.9215H101.407V35.6709H103.407ZM103.357 36.4629H102.321V39.154H103.407C103.996 39.154 104.426 39.0389 104.697 38.8087C104.968 38.5718 105.103 38.2265 105.103 37.7729C105.103 37.299 104.961 36.9639 104.677 36.7676C104.392 36.5645 103.952 36.4629 103.357 36.4629Z" fill="white"/>
<path d="M112.273 42.9215L111.4 40.6772H108.526L107.663 42.9215H106.739L109.572 35.6404H110.395L113.218 42.9215H112.273ZM110.313 37.6714C110.293 37.6172 110.259 37.5191 110.212 37.3769C110.164 37.2347 110.117 37.0892 110.07 36.9402C110.029 36.7845 109.995 36.666 109.968 36.5848C109.921 36.7947 109.867 37.0012 109.806 37.2043C109.745 37.4006 109.694 37.5563 109.653 37.6714L108.831 39.8648H111.126L110.313 37.6714Z" fill="white"/>
<path d="M118.911 35.6709L116.321 42.9215H115.407L112.818 35.6709H113.772L115.407 40.3218C115.516 40.6197 115.607 40.9006 115.682 41.1647C115.756 41.4219 115.817 41.669 115.864 41.906C115.912 41.669 115.973 41.4185 116.047 41.1545C116.122 40.8905 116.213 40.6062 116.321 40.3015L117.946 35.6709H118.911Z" fill="white"/>
<path d="M123.944 42.9215H119.892V35.6709H123.944V36.4731H120.806V38.7376H123.761V39.5297H120.806V42.1192H123.944V42.9215Z" fill="white"/>
<path d="M125.535 42.9215V35.6709H126.449V42.1091H129.617V42.9215H125.535Z" fill="white"/>
<path d="M138.236 42.9215L137.362 40.6772H134.489L133.625 42.9215H132.701L135.535 35.6404H136.357L139.18 42.9215H138.236ZM136.276 37.6714C136.256 37.6172 136.222 37.5191 136.174 37.3769C136.127 37.2347 136.08 37.0892 136.032 36.9402C135.992 36.7845 135.958 36.666 135.931 36.5848C135.883 36.7947 135.829 37.0012 135.768 37.2043C135.707 37.4006 135.656 37.5563 135.616 37.6714L134.793 39.8648H137.088L136.276 37.6714Z" fill="white"/>
<path d="M143.122 39.0931H145.63V42.6473C145.237 42.7759 144.841 42.8707 144.442 42.9316C144.042 42.9926 143.589 43.023 143.081 43.023C142.33 43.023 141.697 42.8741 141.182 42.5762C140.668 42.2716 140.275 41.8417 140.004 41.2865C139.74 40.7246 139.608 40.0612 139.608 39.2962C139.608 38.5379 139.757 37.8813 140.055 37.3261C140.353 36.771 140.779 36.3411 141.334 36.0364C141.896 35.725 142.573 35.5693 143.365 35.5693C143.772 35.5693 144.154 35.6065 144.513 35.681C144.879 35.7555 145.217 35.8604 145.528 35.9958L145.183 36.7879C144.926 36.6728 144.635 36.5747 144.31 36.4934C143.992 36.4122 143.66 36.3716 143.315 36.3716C142.448 36.3716 141.771 36.6322 141.284 37.1535C140.803 37.6748 140.563 38.389 140.563 39.2962C140.563 39.8716 140.654 40.3827 140.837 40.8296C141.026 41.2696 141.321 41.6149 141.72 41.8654C142.12 42.1091 142.644 42.2309 143.294 42.2309C143.613 42.2309 143.883 42.214 144.107 42.1802C144.33 42.1463 144.533 42.1057 144.716 42.0583V39.9055H143.122V39.0931Z" fill="white"/>
<path d="M151.414 42.9215H147.362V35.6709H151.414V36.4731H148.276V38.7376H151.231V39.5297H148.276V42.1192H151.414V42.9215Z" fill="white"/>
<path d="M158.752 42.9215H157.686L153.807 36.8996H153.766C153.78 37.1366 153.797 37.431 153.817 37.7831C153.837 38.1351 153.847 38.4973 153.847 38.8697V42.9215H153.005V35.6709H154.061L157.93 41.6724H157.97C157.964 41.5641 157.953 41.4016 157.94 41.185C157.933 40.9683 157.923 40.7314 157.909 40.4741C157.903 40.2169 157.899 39.9799 157.899 39.7633V35.6709H158.752V42.9215Z" fill="white"/>
<path d="M163.827 36.3716C163.049 36.3716 162.436 36.6322 161.989 37.1535C161.542 37.6748 161.319 38.389 161.319 39.2962C161.319 40.1966 161.526 40.9108 161.938 41.4389C162.358 41.9601 162.984 42.2208 163.817 42.2208C164.135 42.2208 164.437 42.1937 164.721 42.1395C165.005 42.0854 165.283 42.0177 165.554 41.9365V42.7285C165.283 42.8301 165.002 42.9046 164.711 42.9519C164.426 42.9993 164.085 43.023 163.685 43.023C162.947 43.023 162.331 42.8707 161.837 42.5661C161.343 42.2614 160.97 41.8281 160.72 41.2662C160.476 40.7043 160.354 40.0442 160.354 39.286C160.354 38.5549 160.486 37.9117 160.75 37.3566C161.021 36.7947 161.417 36.358 161.938 36.0466C162.46 35.7284 163.093 35.5693 163.837 35.5693C164.602 35.5693 165.269 35.7115 165.838 35.9958L165.472 36.7676C165.249 36.666 164.998 36.5747 164.721 36.4934C164.45 36.4122 164.152 36.3716 163.827 36.3716Z" fill="white"/>
<path d="M169.025 39.2352L170.914 35.6709H171.899L169.482 40.1086V42.9215H168.568V40.1492L166.151 35.6709H167.146L169.025 39.2352Z" fill="white"/>
<defs>
<linearGradient id="paint0_linear" x1="33.1306" y1="1.21819e-05" x2="27.577" y2="45.1951" gradientUnits="userSpaceOnUse">
<stop stop-color="#3693FF"/>
<stop offset="1" stop-color="#81FFAC"/>
</linearGradient>
<linearGradient id="paint1_linear" x1="66.2606" y1="11.1073" x2="-8.4262" y2="73.7293" gradientUnits="userSpaceOnUse">
<stop stop-color="#3693FF"/>
<stop offset="1" stop-color="#36FF7A"/>
</linearGradient>
</defs>
</svg>
