<svg width="22" height="22" viewBox="0 0 22 22" fill="none" xmlns="http://www.w3.org/2000/svg">
<path d="M21.596 17.2332L16.5759 12.6689C16.0831 12.2206 15.3224 12.2441 14.8581 12.722L11.9028 15.7611C11.1915 15.6253 9.76142 15.1795 8.28935 13.7112C6.81729 12.2379 6.37147 10.8042 6.23933 10.0978L9.27608 7.14136C9.75524 6.67703 9.77747 5.91755 9.32918 5.42358L4.76603 0.404832C4.31774 -0.090374 3.55578 -0.137301 3.04821 0.297393L0.368364 2.59559C0.154718 2.81047 0.0275172 3.0945 0.0102278 3.39706C-0.00829646 3.70579 -0.361493 11.019 5.30941 16.6923C10.2566 21.6382 16.4536 22 18.1603 22C18.4098 22 18.5629 21.9926 18.6037 21.9901C18.9062 21.9728 19.1903 21.8456 19.4039 21.6308L21.7009 18.9497C22.1381 18.4422 22.09 17.6815 21.596 17.2332Z" fill="#3A97FC"/>
</svg>
